<svg version="1.1" viewBox="0.0 0.0 798.6797900262467 725.9370078740158" fill="none" stroke="none" stroke-linecap="square" stroke-miterlimit="10" xmlns:xlink="http://www.w3.org/1999/xlink" xmlns="http://www.w3.org/2000/svg"><clipPath id="p.0"><path d="m0 0l798.6798 0l0 725.937l-798.6798 0l0 -725.937z" clip-rule="nonzero"/></clipPath><g clip-path="url(#p.0)"><path fill="#000000" fill-opacity="0.0" d="m0 0l798.6798 0l0 725.937l-798.6798 0z" fill-rule="evenodd"/><path fill="#ffffff" d="m52.31627 129.14929l0 0c0 -63.88656 51.79029 -115.67685 115.67685 -115.67685l462.69354 0l0 0c30.679443 0 60.102295 12.187347 81.7959 33.880966c21.693604 21.693619 33.88098 51.116478 33.88098 81.79588l0 467.63843c0 63.886536 -51.790283 115.67682 -115.67688 115.67682l-462.69354 0l0 0c-63.88656 0 -115.67685 -51.790283 -115.67685 -115.67682z" fill-rule="evenodd"/><path stroke="#000000" stroke-width="1.0" stroke-linejoin="round" stroke-linecap="butt" d="m52.31627 129.14929l0 0c0 -63.88656 51.79029 -115.67685 115.67685 -115.67685l462.69354 0l0 0c30.679443 0 60.102295 12.187347 81.7959 33.880966c21.693604 21.693619 33.88098 51.116478 33.88098 81.79588l0 467.63843c0 63.886536 -51.790283 115.67682 -115.67688 115.67682l-462.69354 0l0 0c-63.88656 0 -115.67685 -51.790283 -115.67685 -115.67682z" fill-rule="evenodd"/><path fill="#000000" fill-opacity="0.0" d="m209.63846 27.102362l379.40158 0l0 665.7953l-379.40158 0z" fill-rule="evenodd"/><path fill="#000000" d="m239.73221 548.10236l0 -32.8125l42.453125 -7.296875l0 -298.6875l-42.453125 -7.296875l0 -32.8125l169.01562 0q41.40625 0 69.90625 12.375q28.515625 12.375 43.359406 35.8125q14.84375 23.4375 14.84375 57.28125q0 33.328125 -14.453125 55.984375q-14.4531555 22.65625 -41.015656 34.25q-26.546875 11.59375 -63.015625 12.375l-84.890625 1.5625l0 129.15625l42.453125 7.296875l0 32.8125l-136.20312 0zm250.25 0l-84.359375 -189.32812l51.296875 -0.515625l70.046906 151.5625l26.296875 4.6875l0 33.59375l-63.28128 0zm-156.5 -209.64062l70.046875 0q42.96875 0 62.5 -16.40625q19.53125 -16.40625 19.53125 -47.90625q0 -29.953125 -18.75 -47.390625q-18.75 -17.453125 -58.0625 -17.453125l-75.265625 0l0 129.15625z" fill-rule="nonzero"/></g></svg>